<svg width="16" height="16" viewBox="0 0 16 16" fill="none" xmlns="http://www.w3.org/2000/svg">
<path d="M11.8891 1.98962C10.9128 1.01331 9.32986 1.01331 8.35355 1.98962L3.05025 7.29292C1.48815 8.85502 1.48815 11.3877 3.05025 12.9498C4.61235 14.5119 7.14501 14.5119 8.7071 12.9498L11.6569 10C12.0474 9.6095 12.0474 8.97634 11.6569 8.58581C11.2663 8.19529 10.6332 8.19529 10.2426 8.58581L7.29289 11.5356C6.51184 12.3166 5.24551 12.3166 4.46446 11.5356C3.68342 10.7545 3.68342 9.48818 4.46446 8.70713L9.76776 3.40383C9.96303 3.20857 10.2796 3.20857 10.4749 3.40383C10.6701 3.59909 10.6701 3.91568 10.4749 4.11094L5.52512 9.06069C5.1346 9.45121 5.1346 10.0844 5.52512 10.4749C5.91565 10.8654 6.54881 10.8654 6.93934 10.4749L11.8891 5.52515C12.8654 4.54884 12.8654 2.96593 11.8891 1.98962Z" fill="#050038"/>
</svg>
