<svg width="16" height="16" viewBox="0 0 16 16" fill="none" xmlns="http://www.w3.org/2000/svg">
<path d="M3 4C3 3.44772 3.44772 3 4 3H12C12.5523 3 13 3.44772 13 4C13 4.55228 12.5523 5 12 5H4C3.44772 5 3 4.55228 3 4Z" fill="#050038"/>
<path d="M3 8C3 7.44772 3.44772 7 4 7H12C12.5523 7 13 7.44772 13 8C13 8.55228 12.5523 9 12 9H4C3.44772 9 3 8.55228 3 8Z" fill="#050038"/>
<path d="M4 11C3.44772 11 3 11.4477 3 12C3 12.5523 3.44772 13 4 13H8C8.55228 13 9 12.5523 9 12C9 11.4477 8.55228 11 8 11H4Z" fill="#050038"/>
</svg>
