<svg width="24" height="24" viewBox="0 0 24 24" fill="none" xmlns="http://www.w3.org/2000/svg">
<path fill-rule="evenodd" clip-rule="evenodd" d="M6 5V9.17071C7.16519 9.58254 8 10.6938 8 12C8 13.3062 7.16519 14.4175 6 14.8293V19C6 19.5523 5.55228 20 5 20C4.44772 20 4 19.5523 4 19V14.8293C2.83481 14.4175 2 13.3062 2 12C2 10.6938 2.83481 9.58254 4 9.17071V5C4 4.44772 4.44772 4 5 4C5.55228 4 6 4.44772 6 5ZM6 12C6 12.5523 5.55228 13 5 13C4.44772 13 4 12.5523 4 12C4 11.4477 4.44772 11 5 11C5.55228 11 6 11.4477 6 12Z" fill="#050038"/>
<path fill-rule="evenodd" clip-rule="evenodd" d="M13 5V14.1707C14.1652 14.5825 15 15.6938 15 17C15 18.6569 13.6569 20 12 20C10.3431 20 9 18.6569 9 17C9 15.6938 9.83481 14.5825 11 14.1707V5C11 4.44772 11.4477 4 12 4C12.5523 4 13 4.44772 13 5ZM12 18C12.5523 18 13 17.5523 13 17C13 16.4477 12.5523 16 12 16C11.4477 16 11 16.4477 11 17C11 17.5523 11.4477 18 12 18Z" fill="#050038"/>
<path fill-rule="evenodd" clip-rule="evenodd" d="M19 20C19.5523 20 20 19.5523 20 19V9.82929C21.1652 9.41746 22 8.30622 22 7C22 5.34315 20.6569 4 19 4C17.3431 4 16 5.34315 16 7C16 8.30622 16.8348 9.41746 18 9.82929V19C18 19.5523 18.4477 20 19 20ZM20 7C20 7.55228 19.5523 8 19 8C18.4477 8 18 7.55228 18 7C18 6.44772 18.4477 6 19 6C19.5523 6 20 6.44772 20 7Z" fill="#050038"/>
</svg>
