<?xml version="1.0" encoding="UTF-8" standalone="no"?><!-- Generator: Gravit.io --><svg xmlns="http://www.w3.org/2000/svg" xmlns:xlink="http://www.w3.org/1999/xlink" style="isolation:isolate" viewBox="0 0 24 24"><defs><clipPath id="_clipPath_fGgwiReXtqwjxgRuAw6AEfITvtDttXNY"><rect width="24" height="24"/></clipPath></defs><g clip-path="url(#_clipPath_fGgwiReXtqwjxgRuAw6AEfITvtDttXNY)"><path d=" M 12.8 8.25 C 13.242 8.25 13.6 8.586 13.6 9 L 13.6 11.25 L 16 11.25 C 16.442 11.25 16.8 11.586 16.8 12 C 16.8 12.414 16.442 12.75 16 12.75 L 13.6 12.75 L 13.6 15 C 13.6 15.414 13.242 15.75 12.8 15.75 C 12.358 15.75 12 15.414 12 15 L 12 12.75 L 9.6 12.75 C 9.158 12.75 8.8 12.414 8.8 12 C 8.8 11.586 9.158 11.25 9.6 11.25 L 12 11.25 L 12 9 C 12 8.586 12.358 8.25 12.8 8.25 Z " fill-rule="evenodd" fill="currentColor"/><path d=" M 4.8 0 L 20.8 0 C 22.567 0 24 1.343 24 3 L 24 21 C 24 22.657 22.567 24 20.8 24 L 4.8 24 C 3.033 24 1.6 22.657 1.6 21 L 1.6 19.5 L 3.2 19.5 L 3.2 21 C 3.2 21.828 3.916 22.5 4.8 22.5 L 20.8 22.5 C 21.684 22.5 22.4 21.828 22.4 21 L 22.4 3 C 22.4 2.172 21.684 1.5 20.8 1.5 L 4.8 1.5 C 3.916 1.5 3.2 2.172 3.2 3 L 3.2 4.5 L 1.6 4.5 L 1.6 3 C 1.6 1.343 3.033 0 4.8 0 Z " fill="currentColor"/><path d=" M 1.6 7.5 L 1.6 6.75 C 1.6 6.336 1.958 6 2.4 6 C 2.842 6 3.2 6.336 3.2 6.75 L 3.2 7.5 L 4 7.5 C 4.442 7.5 4.8 7.836 4.8 8.25 C 4.8 8.664 4.442 9 4 9 L 0.8 9 C 0.358 9 0 8.664 0 8.25 C 0 7.836 0.358 7.5 0.8 7.5 L 1.6 7.5 Z  M 1.6 12 L 1.6 11.25 C 1.6 10.836 1.958 10.5 2.4 10.5 C 2.842 10.5 3.2 10.836 3.2 11.25 L 3.2 12 L 4 12 C 4.442 12 4.8 12.336 4.8 12.75 C 4.8 13.164 4.442 13.5 4 13.5 L 0.8 13.5 C 0.358 13.5 0 13.164 0 12.75 C 0 12.336 0.358 12 0.8 12 L 1.6 12 Z  M 1.6 16.5 L 1.6 15.75 C 1.6 15.336 1.958 15 2.4 15 C 2.842 15 3.2 15.336 3.2 15.75 L 3.2 16.5 L 4 16.5 C 4.442 16.5 4.8 16.836 4.8 17.25 C 4.8 17.664 4.442 18 4 18 L 0.8 18 C 0.358 18 0 17.664 0 17.25 C 0 16.836 0.358 16.5 0.8 16.5 L 1.6 16.5 Z " fill="currentColor"/></g></svg>